<?xml version="1.0" encoding="utf-8"?>
<svg viewBox="0 -90.1 1260 630" width="1260" height="630" fill="currentColor" stroke="currentColor" xmlns="http://www.w3.org/2000/svg">
  <rect y="-90.1" width="1260" height="630" style="stroke: none; fill: rgb(255, 255, 255);" transform="matrix(1, 0, 0, 1, -2.842170943040401e-14, -5.684341886080802e-14)"/>
  <path d="M 268.255 136.64 L 204.075 136.64 L 204.075 324.124 L 176.646 324.124 L 176.646 136.64 L 113 136.64 L 113 115.005 L 268.255 115.005 L 268.255 136.64 Z M 280.221 219.966 C 280.221 205.365 282.215 191.522 286.211 178.437 C 290.207 165.349 296.2 153.908 304.184 144.116 C 312.175 134.322 322.075 126.578 333.878 120.883 C 345.685 115.184 359.398 112.336 375.021 112.336 C 390.467 112.336 404.092 115.184 415.897 120.883 C 427.703 126.578 437.601 134.322 445.591 144.116 C 453.579 153.908 459.616 165.349 463.698 178.437 C 467.782 191.522 469.825 205.365 469.825 219.966 C 469.825 234.567 467.782 248.365 463.698 261.363 C 459.616 274.36 453.579 285.755 445.591 295.55 C 437.601 305.342 427.703 313.088 415.897 318.783 C 404.092 324.479 390.467 327.329 375.021 327.329 C 359.398 327.329 345.685 324.479 333.878 318.783 C 322.075 313.088 312.175 305.342 304.184 295.55 C 296.2 285.755 290.207 274.36 286.211 261.363 C 282.215 248.365 280.221 234.567 280.221 219.966 Z M 375.021 133.969 C 364.016 133.969 354.384 136.371 346.13 141.178 C 337.874 145.987 330.95 152.396 325.357 160.407 C 319.762 168.42 315.551 177.588 312.709 187.918 C 309.868 198.243 308.448 208.928 308.448 219.966 C 308.448 231.004 309.868 241.643 312.709 251.883 C 315.551 262.118 319.762 271.245 325.357 279.257 C 330.95 287.268 337.874 293.677 346.13 298.486 C 354.384 303.293 364.016 305.697 375.021 305.697 C 386.027 305.697 395.703 303.293 404.047 298.486 C 412.391 293.677 419.358 287.268 424.95 279.257 C 430.544 271.245 434.714 262.118 437.469 251.883 C 440.217 241.643 441.595 231.004 441.595 219.966 C 441.595 208.928 440.173 198.243 437.334 187.918 C 434.494 177.588 430.279 168.42 424.688 160.407 C 419.093 152.396 412.125 145.987 403.781 141.178 C 395.437 136.371 385.852 133.969 375.021 133.969 Z M 566.744 115.005 C 581.84 115.005 595.461 117.631 607.626 122.884 C 619.784 128.137 630.037 135.391 638.382 144.651 C 646.726 153.908 653.161 164.949 657.687 177.769 C 662.217 190.587 664.481 204.565 664.481 219.698 C 664.481 233.943 662.217 247.385 657.687 260.027 C 653.161 272.669 646.639 283.751 638.113 293.277 C 629.595 302.804 619.298 310.325 607.223 315.845 C 595.151 321.367 581.659 324.124 566.744 324.124 L 498.576 324.124 L 498.576 115.005 L 566.744 115.005 Z M 564.881 302.493 C 576.422 302.493 586.629 300.31 595.507 295.949 C 604.385 291.588 611.838 285.62 617.876 278.055 C 623.913 270.488 628.484 261.676 631.588 251.615 C 634.697 241.552 636.249 230.829 636.249 219.431 C 636.249 206.792 634.609 195.348 631.325 185.112 C 628.042 174.876 623.292 166.15 617.075 158.939 C 610.862 151.728 603.362 146.208 594.576 142.383 C 585.788 138.553 575.89 136.64 564.881 136.64 L 526.004 136.64 L 526.004 302.493 L 564.881 302.493 Z M 698.027 304.362 L 733.978 304.362 L 733.978 337.479 L 698.027 337.479 L 698.027 304.362 Z M 867.919 327.063 C 852.651 327.063 838.758 324.306 826.243 318.783 C 813.725 313.262 803.076 305.651 794.289 295.949 C 785.498 286.245 778.71 274.897 773.916 261.896 C 769.121 248.897 766.727 234.923 766.727 219.966 C 766.727 204.297 769.256 189.874 774.314 176.7 C 779.376 163.525 786.344 152.218 795.22 142.784 C 804.097 133.346 814.704 125.955 827.044 120.615 C 839.383 115.272 852.739 112.515 867.119 112.336 C 879.012 112.158 890.907 113.626 902.804 116.741 C 914.7 119.858 925.083 124.266 933.958 129.96 L 923.041 149.457 C 915.407 145.185 906.93 141.625 897.612 138.776 C 888.29 135.925 878.303 134.501 867.649 134.501 C 855.934 134.501 845.594 136.818 836.628 141.446 C 827.661 146.075 820.118 152.351 813.995 160.275 C 807.87 168.2 803.208 177.323 800.011 187.651 C 796.819 197.976 795.22 208.748 795.22 219.966 C 795.22 231.538 796.907 242.4 800.28 252.548 C 803.651 262.696 808.488 271.6 814.792 279.257 C 821.094 286.915 828.728 292.966 837.694 297.418 C 846.66 301.869 856.733 304.095 867.919 304.095 C 875.019 304.095 882.651 303.249 890.82 301.558 C 898.986 299.865 906.002 297.864 911.857 295.55 L 911.857 235.722 L 857.533 235.722 L 857.533 214.091 L 939.286 214.091 L 939.286 308.901 C 932.185 312.461 925.569 315.398 919.448 317.716 C 913.323 320.031 907.374 321.901 901.605 323.324 C 895.837 324.748 890.197 325.73 884.697 326.26 C 879.19 326.797 873.599 327.063 867.919 327.063 Z M 1075.632 327.063 C 1060.364 327.063 1046.475 324.306 1033.957 318.783 C 1021.44 313.262 1010.791 305.651 1002.001 295.949 C 993.213 286.245 986.425 274.897 981.628 261.896 C 976.835 248.897 974.442 234.923 974.442 219.966 C 974.442 204.297 976.97 189.874 982.029 176.7 C 987.089 163.525 994.058 152.218 1002.935 142.784 C 1011.808 133.346 1022.419 125.955 1034.759 120.615 C 1047.095 115.272 1060.454 112.515 1074.836 112.336 C 1086.729 112.158 1098.622 113.626 1110.519 116.741 C 1122.411 119.858 1132.797 124.266 1141.674 129.96 L 1130.755 149.457 C 1123.123 145.185 1114.644 141.625 1105.325 138.776 C 1096.005 135.925 1086.017 134.501 1075.365 134.501 C 1063.648 134.501 1053.307 136.818 1044.343 141.446 C 1035.376 146.075 1027.829 152.351 1021.708 160.275 C 1015.583 168.2 1010.923 177.323 1007.725 187.651 C 1004.531 197.976 1002.935 208.748 1002.935 219.966 C 1002.935 231.538 1004.621 242.4 1007.994 252.548 C 1011.364 262.696 1016.204 271.6 1022.507 279.257 C 1028.809 286.915 1036.442 292.966 1045.407 297.418 C 1054.373 301.869 1064.447 304.095 1075.632 304.095 C 1082.733 304.095 1090.365 303.249 1098.535 301.558 C 1106.701 299.865 1113.713 297.864 1119.572 295.55 L 1119.572 235.722 L 1065.246 235.722 L 1065.246 214.091 L 1147 214.091 L 1147 308.901 C 1139.897 312.461 1133.284 315.398 1127.16 317.716 C 1121.036 320.031 1115.089 321.901 1109.318 323.324 C 1103.55 324.748 1097.913 325.73 1092.409 326.26 C 1086.906 326.797 1081.312 327.063 1075.632 327.063 Z" style="stroke-width: 3px; stroke: rgb(0, 0, 0); fill: rgb(0, 0, 0);" transform="matrix(1, 0, 0, 1, -2.842170943040401e-14, -5.684341886080802e-14)"/>
</svg>