<svg xmlns="http://www.w3.org/2000/svg" fill="#000" viewBox="0 -90.052 390.304 87.455"><path d="M 60.1 -56.291 L 36 -56.291 L 36 13.909 L 25.7 13.909 L 25.7 -56.291 L 1.8 -56.291 L 1.8 -64.391 L 60.1 -64.391 Z M 64.594 -25.091 Q 64.594 -33.291 66.844 -40.641 Q 69.094 -47.991 73.594 -53.491 Q 78.094 -58.991 84.744 -62.191 Q 91.394 -65.391 100.194 -65.391 Q 108.894 -65.391 115.544 -62.191 Q 122.194 -58.991 126.694 -53.491 Q 131.194 -47.991 133.494 -40.641 Q 135.794 -33.291 135.794 -25.091 Q 135.794 -16.891 133.494 -9.591 Q 131.194 -2.291 126.694 3.209 Q 122.194 8.709 115.544 11.909 Q 108.894 15.109 100.194 15.109 Q 91.394 15.109 84.744 11.909 Q 78.094 8.709 73.594 3.209 Q 69.094 -2.291 66.844 -9.591 Q 64.594 -16.891 64.594 -25.091 Z M 100.194 -57.291 Q 93.994 -57.291 89.344 -54.591 Q 84.694 -51.891 81.544 -47.391 Q 78.394 -42.891 76.794 -37.091 Q 75.194 -31.291 75.194 -25.091 Q 75.194 -18.891 76.794 -13.141 Q 78.394 -7.391 81.544 -2.891 Q 84.694 1.609 89.344 4.309 Q 93.994 7.009 100.194 7.009 Q 106.394 7.009 111.094 4.309 Q 115.794 1.609 118.944 -2.891 Q 122.094 -7.391 123.644 -13.141 Q 125.194 -18.891 125.194 -25.091 Q 125.194 -31.291 123.594 -37.091 Q 121.994 -42.891 118.844 -47.391 Q 115.694 -51.891 110.994 -54.591 Q 106.294 -57.291 100.194 -57.291 Z M 172.191 -64.391 Q 180.691 -64.391 187.541 -61.441 Q 194.391 -58.491 199.091 -53.291 Q 203.791 -48.091 206.341 -40.891 Q 208.891 -33.691 208.891 -25.191 Q 208.891 -17.191 206.341 -10.091 Q 203.791 -2.991 198.991 2.359 Q 194.191 7.709 187.391 10.809 Q 180.591 13.909 172.191 13.909 L 146.591 13.909 L 146.591 -64.391 Z M 171.491 5.809 Q 177.991 5.809 182.991 3.359 Q 187.991 0.909 191.391 -3.341 Q 194.791 -7.591 196.541 -13.241 Q 198.291 -18.891 198.291 -25.291 Q 198.291 -32.391 196.441 -38.141 Q 194.591 -43.891 191.091 -47.941 Q 187.591 -51.991 182.641 -54.141 Q 177.691 -56.291 171.491 -56.291 L 156.891 -56.291 L 156.891 5.809 Z M 221.489 6.509 L 234.989 6.509 L 234.989 18.909 L 221.489 18.909 Z M 285.287 15.009 Q 276.687 15.009 269.637 11.909 Q 262.587 8.809 257.637 3.359 Q 252.687 -2.091 249.987 -9.391 Q 247.287 -16.691 247.287 -25.091 Q 247.287 -33.891 250.137 -41.291 Q 252.987 -48.691 257.987 -53.991 Q 262.987 -59.291 269.937 -62.291 Q 276.887 -65.291 284.987 -65.391 Q 291.687 -65.491 298.387 -63.741 Q 305.087 -61.991 310.087 -58.791 L 305.987 -51.491 Q 301.687 -53.891 296.437 -55.491 Q 291.187 -57.091 285.187 -57.091 Q 278.587 -57.091 273.537 -54.491 Q 268.487 -51.891 265.037 -47.441 Q 261.587 -42.991 259.787 -37.191 Q 257.987 -31.391 257.987 -25.091 Q 257.987 -18.591 259.887 -12.891 Q 261.787 -7.191 265.337 -2.891 Q 268.887 1.409 273.937 3.909 Q 278.987 6.409 285.287 6.409 Q 289.287 6.409 293.887 5.459 Q 298.487 4.509 301.787 3.209 L 301.787 -19.191 L 281.387 -19.191 L 281.387 -27.291 L 312.087 -27.291 L 312.087 8.209 Q 308.087 10.209 304.637 11.509 Q 301.187 12.809 297.937 13.609 Q 294.687 14.409 291.587 14.709 Q 288.487 15.009 285.287 15.009 Z M 363.288 15.009 Q 354.688 15.009 347.638 11.909 Q 340.588 8.809 335.638 3.359 Q 330.688 -2.091 327.988 -9.391 Q 325.288 -16.691 325.288 -25.091 Q 325.288 -33.891 328.138 -41.291 Q 330.988 -48.691 335.988 -53.991 Q 340.988 -59.291 347.938 -62.291 Q 354.888 -65.291 362.988 -65.391 Q 369.688 -65.491 376.388 -63.741 Q 383.088 -61.991 388.088 -58.791 L 383.988 -51.491 Q 379.688 -53.891 374.438 -55.491 Q 369.188 -57.091 363.188 -57.091 Q 356.588 -57.091 351.538 -54.491 Q 346.488 -51.891 343.038 -47.441 Q 339.588 -42.991 337.788 -37.191 Q 335.988 -31.391 335.988 -25.091 Q 335.988 -18.591 337.888 -12.891 Q 339.788 -7.191 343.338 -2.891 Q 346.888 1.409 351.938 3.909 Q 356.988 6.409 363.288 6.409 Q 367.288 6.409 371.888 5.459 Q 376.488 4.509 379.788 3.209 L 379.788 -19.191 L 359.388 -19.191 L 359.388 -27.291 L 390.088 -27.291 L 390.088 8.209 Q 386.088 10.209 382.638 11.509 Q 379.188 12.809 375.938 13.609 Q 372.688 14.409 369.588 14.709 Q 366.488 15.009 363.288 15.009 Z" transform="matrix(0.9970890283584595, 0, 0, 1, -0.23291100561618805, -23.086225509643526)" style="stroke: #000; stroke-width: 3px;"/></svg>